<svg id="Layer_1" enable-background="new 0 0 512 512" height="512" viewBox="0 0 512 512" width="512" xmlns="http://www.w3.org/2000/svg"><path d="m417.156 0h-252.623c-28.036 0-50.844 21.533-50.844 48v16h-34.944c-19.159 0-34.745 15.586-34.745 34.745v378.51c0 19.159 15.586 34.745 34.745 34.745h284.821c19.159 0 34.745-15.586 34.745-34.745v-29.255h18.845c28.035 0 50.844-21.533 50.844-48v-352c0-26.467-22.809-48-50.844-48zm-50.845 477.255c0 1.514-1.231 2.745-2.745 2.745h-284.821c-1.514 0-2.745-1.231-2.745-2.745v-378.51c0-1.514 1.231-2.745 2.745-2.745h284.821c1.514 0 2.745 1.231 2.745 2.745zm69.689-77.255c0 8.822-8.454 16-18.844 16h-18.845v-317.255c0-19.159-15.586-34.745-34.745-34.745h-217.877v-16c0-8.822 8.454-16 18.844-16h252.623c10.39 0 18.844 7.178 18.844 16z"/><path d="m300 216h-152c-8.836 0-16-7.164-16-16s7.164-16 16-16h152c8.836 0 16 7.164 16 16s-7.164 16-16 16z"/><path d="m300 280h-152c-8.836 0-16-7.164-16-16s7.164-16 16-16h152c8.836 0 16 7.164 16 16s-7.164 16-16 16z"/><path d="m300 344h-152c-8.836 0-16-7.164-16-16s7.164-16 16-16h152c8.836 0 16 7.164 16 16s-7.164 16-16 16z"/></svg>